<?xml version="1.0" encoding="iso-8859-1"?>
<!-- Generator: Adobe Illustrator 19.0.0, SVG Export Plug-In . SVG Version: 6.00 Build 0)  -->
<svg version="1.1" id="Capa_1" xmlns="http://www.w3.org/2000/svg" xmlns:xlink="http://www.w3.org/1999/xlink" x="0px" y="0px"
	 viewBox="0 0 344.816 344.816" style="enable-background:new 0 0 344.816 344.816;" xml:space="preserve">
<g>
	<g>
		<circle style="fill:#00EFD1;" cx="58.514" cy="47.02" r="36.571"/>
		<circle style="fill:#00EFD1;" cx="58.514" cy="172.408" r="36.571"/>
		<circle style="fill:#00EFD1;" cx="58.514" cy="297.796" r="36.571"/>
	</g>
	<g>
		<path style="fill:#083863;" d="M322.873,182.857H140.016c-5.771,0-10.449-4.678-10.449-10.449c0-5.771,4.678-10.449,10.449-10.449
			h182.857c5.771,0,10.449,4.678,10.449,10.449C333.322,178.179,328.644,182.857,322.873,182.857z"/>
		<path style="fill:#083863;" d="M58.514,219.429c-25.969,0-47.02-21.052-47.02-47.02c0-25.969,21.052-47.02,47.02-47.02
			s47.02,21.052,47.02,47.02S84.483,219.429,58.514,219.429L58.514,219.429z M58.514,146.286c-14.427,0-26.122,11.695-26.122,26.122
			s11.695,26.122,26.122,26.122s26.122-11.695,26.122-26.122S72.941,146.286,58.514,146.286z"/>
		<path style="fill:#083863;" d="M322.873,57.469H140.016c-5.771,0-10.449-4.678-10.449-10.449s4.678-10.449,10.449-10.449h182.857
			c5.771,0,10.449,4.678,10.449,10.449S328.644,57.469,322.873,57.469z"/>
		<path style="fill:#083863;" d="M58.514,94.041c-25.969,0-47.02-21.052-47.02-47.02C11.494,21.052,32.546,0,58.514,0
			c25.969,0,47.02,21.052,47.02,47.02S84.483,94.041,58.514,94.041L58.514,94.041z M58.514,20.898
			c-14.427,0-26.122,11.695-26.122,26.122s11.695,26.122,26.122,26.122S84.637,61.447,84.637,47.02S72.941,20.898,58.514,20.898z"/>
		<path style="fill:#083863;" d="M322.873,308.245H140.016c-5.771,0-10.449-4.678-10.449-10.449c0-5.771,4.678-10.449,10.449-10.449
			h182.857c5.771,0,10.449,4.678,10.449,10.449C333.322,303.567,328.644,308.245,322.873,308.245z"/>
		<path style="fill:#083863;" d="M58.514,344.816c-25.969,0-47.02-21.052-47.02-47.02c0-25.969,21.052-47.02,47.02-47.02
			s47.02,21.052,47.02,47.02C105.535,323.765,84.483,344.816,58.514,344.816L58.514,344.816z M58.514,271.673
			c-14.427,0-26.122,11.695-26.122,26.122c0,14.427,11.695,26.122,26.122,26.122s26.122-11.695,26.122-26.122
			C84.637,283.369,72.941,271.673,58.514,271.673z"/>
	</g>
</g>
<g>
</g>
<g>
</g>
<g>
</g>
<g>
</g>
<g>
</g>
<g>
</g>
<g>
</g>
<g>
</g>
<g>
</g>
<g>
</g>
<g>
</g>
<g>
</g>
<g>
</g>
<g>
</g>
<g>
</g>
</svg>
